<?xml version="1.0" encoding="UTF-8" standalone="no"?>
<!-- Created with Inkscape (http://www.inkscape.org/) -->

<svg
   width="820"
   height="462"
   viewBox="0 0 820 462"
   version="1.1"
   id="svg5"
   inkscape:version="1.2.2 (b0a8486541, 2022-12-01)"
   sodipodi:docname="logo.svg"
   xmlns:inkscape="http://www.inkscape.org/namespaces/inkscape"
   xmlns:sodipodi="http://sodipodi.sourceforge.net/DTD/sodipodi-0.dtd"
   xmlns="http://www.w3.org/2000/svg"
   xmlns:svg="http://www.w3.org/2000/svg">
  <sodipodi:namedview
     id="namedview7"
     pagecolor="#ffffff"
     bordercolor="#999999"
     borderopacity="1"
     inkscape:showpageshadow="0"
     inkscape:pageopacity="0"
     inkscape:pagecheckerboard="0"
     inkscape:deskcolor="#d1d1d1"
     inkscape:document-units="px"
     showgrid="false"
     inkscape:zoom="1.6926407"
     inkscape:cx="358.02046"
     inkscape:cy="231"
     inkscape:window-width="1920"
     inkscape:window-height="1011"
     inkscape:window-x="0"
     inkscape:window-y="0"
     inkscape:window-maximized="1"
     inkscape:current-layer="layer1" />
  <defs
     id="defs2" />
  <g
     inkscape:label="Camada 1"
     inkscape:groupmode="layer"
     id="layer1">
    <path
       style="fill:#f7931a;stroke:#f7931a;stroke-width:5;stroke-dasharray:none;fill-opacity:1;stroke-opacity:1"
       id="path1565"
       d="m 92.087206,105.30616 c 2.096947,9.00619 2.045252,18.31244 2.332554,27.49858 0.08444,2.7 0.215286,5.39835 0.322929,8.09752 0.695004,11.63416 1.66578,23.25973 1.815847,34.9195 0.07771,6.03793 -0.05183,9.03774 -0.202759,14.95909 -0.556123,7.0793 -0.569534,14.35803 -2.422394,21.26858 -0.215707,0.80451 -0.499741,1.58914 -0.749611,2.3837 -1.606657,4.58186 -3.774331,8.91949 -5.964608,13.24113 -2.905877,5.2863 -5.226519,10.84212 -7.462681,16.43419 -1.990823,4.37567 -3.207264,9.01612 -4.091928,13.72394 -0.638416,3.47459 -0.897164,7.00123 -0.952493,10.52875 0.20827,3.62041 -0.172209,7.20813 -0.743728,10.77638 -0.505291,3.5757 -1.482214,7.06101 -2.218314,10.59269 -1.127017,4.90389 -1.420859,9.934 -1.768696,14.93719 -0.07376,1.20782 -0.203102,3.36155 -0.286897,4.60048 -0.04137,0.6117 -0.167214,1.2224 -0.132464,1.83451 0.04271,0.75235 -0.262882,1.81205 0.363283,2.2313 30.762314,20.59696 20.461859,19.28255 37.332954,20.29277 15.12333,0.93142 30.26812,1.36268 45.38809,2.36575 15.16869,1.00631 18.67,1.39715 33.98027,2.74016 16.80016,1.73276 33.64755,2.97308 50.44684,4.71391 10.78703,1.11781 14.39223,1.64425 24.63528,2.97213 0,0 -24.07753,-17.76913 -24.07753,-17.76913 v 0 c -8.92649,-0.0789 -11.70062,-0.0353 -21.22512,-0.45894 -16.40248,-0.72951 -32.7586,-2.16012 -49.09532,-3.76785 -11.42431,-1.12596 -23.64797,-2.30859 -35.06732,-3.52161 -14.38438,-1.52797 -28.87011,-2.95907 -43.079208,-5.76015 -2.9656,-0.58462 -5.884813,-1.38391 -8.82722,-2.07587 -15.478889,-6.18276 -7.068087,-3.17496 22.839668,15.25812 0.40161,0.24752 -0.9666,-0.35232 -1.18832,-0.76873 -0.28836,-0.54157 -0.16155,-1.21764 -0.1955,-1.83025 -0.0622,-1.12151 -0.0134,-3.55395 -6.2e-4,-4.63868 0.16517,-4.77266 0.5486,-9.55583 1.84569,-14.17447 0.93312,-3.57592 1.97746,-7.12996 2.51473,-10.79678 0.46298,-3.69465 1.07861,-7.39027 1.12668,-11.11997 0.0111,-3.42639 -0.0726,-6.86013 0.27794,-10.27481 0.2267,-1.77647 0.2825,-2.50354 0.66074,-4.27159 0.66005,-3.08524 1.79836,-6.03812 2.68897,-9.05843 1.86946,-5.56633 4.13072,-10.98928 7.2099,-16.01043 2.51189,-4.46057 5.19954,-8.89192 6.43577,-13.91729 0.61931,-2.73114 0.81191,-3.14774 1.03791,-6.05029 0.52081,-6.68882 -0.4575,-13.39007 -0.56546,-20.07351 -0.41943,-8.07078 -0.75831,-16.14231 -1.12159,-24.21557 -0.25329,-5.62891 -0.62346,-11.91386 -0.8164,-17.54824 -0.0957,-2.79412 -0.13528,-5.58987 -0.20292,-8.3848 0.0447,-3.92017 0.0979,-11.09914 0.25206,-15.09861 0.20606,-5.347 0.52648,-10.72616 1.64798,-15.97205 0.1364,-0.63802 0.34794,-1.25763 0.52191,-1.88645 0,0 -33.218894,-16.92587 -33.218894,-16.92587 z" />
    <path
       style="fill:#f7931a;stroke:#f7931a;stroke-width:5;stroke-dasharray:none;fill-opacity:1;stroke-opacity:1"
       id="path1567"
       d="m 333.37163,168.68779 c -1.08096,2.94823 -1.59246,4.48049 -3.03938,7.59274 -1.34633,2.89589 -6.28871,12.43506 -7.41303,14.64128 -4.58492,8.99682 -5.91701,11.68355 -10.5289,20.86535 -1.70373,3.72803 -3.49374,7.41781 -5.11119,11.18407 -2.85995,6.65941 -5.86008,14.62224 -8.21101,21.51162 -1.94572,5.70189 -3.67085,11.29265 -5.07265,17.14465 -0.52848,2.20623 -0.91506,4.44405 -1.37258,6.66607 -0.52514,4.36607 -0.93443,6.00329 -0.70209,10.25757 0.0733,1.34181 0.13849,2.70696 0.506,3.99954 0.40582,1.42733 1.02756,2.80293 1.79003,4.07596 1.8394,3.0711 3.65302,4.4298 6.22075,6.82675 1.21304,0.90778 2.39604,1.85714 3.63911,2.72334 4.12808,2.8765 8.56599,5.29547 12.75108,8.08965 4.70805,3.14331 6.79756,4.71831 11.46616,8.08592 2.10457,1.51928 4.18208,3.07675 6.31372,4.55782 2.21382,1.53818 4.3961,3.13334 6.72061,4.4985 16.3959,9.62906 26.38626,16.97486 42.00752,22.72804 5.82551,2.14549 9.67788,3.08918 15.6038,4.7341 3.44894,0.86527 8.43558,2.22107 12.06786,2.77342 3.45534,0.52544 5.12685,0.88809 8.16629,-1.1831 3.15322,-2.14873 4.8819,-5.60438 6.88778,-8.67685 5.97975,-10.6492 11.73906,-21.496 16.22742,-32.87446 3.4101,-8.64494 3.84057,-10.80107 6.47822,-19.68402 3.98523,-15.05969 5.77498,-30.57257 5.51701,-46.13704 -0.0395,-2.38262 -0.2,-4.76169 -0.30001,-7.14254 -0.63704,-8.6195 -2.28743,-17.19191 -5.57267,-25.21319 -0.42952,-1.04873 -0.93729,-2.06367 -1.40593,-3.09551 -2.62969,-5.21455 -6.5383,-8.52614 -11.29502,-11.68376 -12.1699,-7.47946 -3.50795,-2.17928 -34.27597,-19.66635 -1.80346,-1.025 -3.09467,-1.35184 -5.10015,-1.66729 -2.94759,0.0687 -5.84375,-0.39992 -8.72287,-0.988 -1.64973,-0.27381 -3.25736,-0.8025 -4.91217,-1.04907 -1.37422,-0.20475 -2.79472,-0.2177 -4.18042,-0.25282 -2.88028,-0.0935 -5.76133,-0.008 -8.64206,-0.004 -2.86556,0.0566 -5.73139,-0.0623 -8.59645,-0.027 -3.34987,-0.0706 -6.66635,0.10395 -9.98588,0.54843 -2.31403,0.30196 -4.59262,0.80114 -6.879,1.25484 -0.68662,0.13624 -3.55952,0.64975 -4.24788,0.8387 -0.71325,0.19578 -1.39957,0.479 -2.09936,0.71851 -1.84704,0.52641 -3.42446,1.53247 -4.98297,2.60886 0,0 30.95182,19.7147 30.95182,19.7147 v 0 c 1.19878,-0.86 2.44025,-1.54789 3.88752,-1.92694 4.18239,-1.04512 8.43274,-1.96281 12.74512,-2.219 3.44818,-0.0895 6.89275,0.062 10.34174,0.0579 2.82642,0.0276 5.65304,-0.10162 8.48006,-0.0514 2.86174,0.005 5.72695,0.0588 8.58144,0.27313 2.8481,0.32711 5.65647,0.90061 8.48196,1.38091 1.67158,0.29159 2.22049,0.39896 3.88353,0.64403 1.7523,0.25823 3.55501,0.31182 5.22955,0.94326 1.02297,0.39276 1.97472,0.88445 2.95596,1.37165 0.41549,0.2063 1.64628,0.85449 1.24526,0.62132 -26.91188,-15.64759 -39.77641,-22.69978 -27.74695,-16.08923 4.8807,2.67562 9.65119,5.61712 12.8893,10.28459 2.20485,3.55527 4.24575,7.15922 5.74615,11.08404 2.1257,5.56051 3.42378,11.41582 4.47365,17.25798 0.8964,6.66446 1.30152,8.5545 1.57516,15.45993 0.11779,2.97243 0.18672,5.95097 0.0827,8.92391 -0.34225,9.77862 -2.00797,19.45337 -4.26612,28.95471 -0.93523,3.24723 -1.73853,6.5354 -2.80569,9.7417 -4.01157,12.05282 -9.86931,23.92979 -17.38391,34.19366 -1.48858,2.03318 -3.17447,3.91425 -4.76171,5.87138 -2.4898,2.37211 -4.29697,4.64894 -7.47011,6.01028 -1.95626,0.83928 -4.2141,0.68781 -6.2513,0.49821 -4.04397,-0.37636 -6.12588,-0.94884 -10.27377,-1.80828 -6.24415,-1.69616 -8.59835,-2.14989 -14.76716,-4.63856 -2.64398,-1.06666 -10.14285,-5.14261 -7.78874,-3.53433 6.27668,4.2881 12.99393,7.89864 19.62282,11.61913 2.26458,1.271 -4.38572,-2.78484 -6.51955,-4.26488 -2.02522,-1.40469 -3.96851,-2.92397 -5.95276,-4.38596 -4.78465,-3.65845 -9.52209,-7.43249 -14.52457,-10.79529 -4.38833,-2.94994 -3.36434,-2.02077 -7.77692,-4.73142 -1.26635,-0.77792 -2.49783,-1.61121 -3.74675,-2.41681 -3.20607,-2.44731 -6.79091,-4.90419 -8.5887,-8.68701 -0.57484,-1.20957 -0.87867,-2.53521 -1.18489,-3.83894 -1.02421,-4.36066 -0.8752,-5.7687 -1.12944,-10.41991 0.29896,-6.36283 0.23842,-8.71733 1.32981,-15.25841 2.46155,-14.75301 7.57845,-28.91027 14.35396,-42.21102 1.98576,-3.46346 3.83798,-7.00699 5.95727,-10.39039 3.83213,-6.1179 7.60929,-11.01365 12.044,-16.62028 2.2629,-2.86091 5.37516,-6.68011 7.96179,-9.44318 0.68622,-0.73303 1.4433,-1.39635 2.16495,-2.09453 0,0 -31.76016,-18.66092 -31.76016,-18.66092 z" />
    <path
       style="fill:#f7931a;stroke:#f7931a;stroke-width:5;stroke-dasharray:none;fill-opacity:1;stroke-opacity:1"
       id="path1569"
       d="m 547.70309,258.68781 c 3.70109,-1.47838 7.64528,-2.08594 11.58137,-2.53211 0.60085,-0.05 1.19962,-0.15014 1.80254,-0.14989 2.39862,9.9e-4 6.08397,1.25564 8.33822,2.11892 0.41835,0.2411 0.85274,0.45632 1.25506,0.72331 0.38514,0.25558 1.50397,1.07005 1.10241,0.84114 -10.09991,-5.75746 -20.12605,-11.64348 -30.2078,-17.43269 -0.42611,-0.24468 0.84294,0.50781 1.23931,0.79822 1.01293,0.74213 1.44742,1.25823 2.3524,2.1692 0.30671,0.57528 0.75596,1.09493 0.92014,1.72586 0.56609,2.17542 0.0934,4.40931 -0.48051,6.51431 -1.26527,4.6407 -3.57686,8.85456 -5.80011,13.0797 -4.23974,7.77536 -9.86332,14.6324 -16.04358,20.92863 -3.37774,3.14769 -6.83497,6.2858 -10.73734,8.78395 -2.50078,1.60091 -3.66052,2.08716 -6.29471,3.39137 -3.63944,1.6218 -7.44275,2.9401 -11.44557,3.13545 0.11922,0.40643 -2.05578,-1.80401 -1.45294,-1.47033 10.10778,5.59467 20.04912,11.48499 30.09387,17.19204 0.54995,0.31245 -1.09253,-0.6409 -1.60799,-1.00745 -1.59451,-1.13389 -2.72574,-2.23724 -4.21017,-3.56523 -0.98935,-1.05197 -2.02402,-2.0631 -2.96805,-3.15592 -6.30045,-7.29346 -11.82461,-15.38311 -16.40089,-23.85886 -1.16627,-2.16006 -2.19056,-4.39383 -3.28584,-6.59075 -3.08925,-6.59913 -5.52748,-13.49176 -6.8888,-20.65786 -0.63119,-3.32268 -0.62897,-4.00727 -0.95582,-7.29179 -0.65334,-7.4794 1.38396,-14.73948 3.30269,-21.88677 2.50642,-9.64085 6.5348,-18.73744 10.87096,-27.66741 2.9272,-5.84475 6.52235,-11.42089 11.43494,-15.81048 3.48312,-3.11232 5.78,-4.35521 9.76029,-6.921 8.73912,-4.94846 17.87562,-9.39584 27.49059,-12.38599 7.19231,-2.23673 9.68646,-2.49812 17.1512,-3.93958 3.05436,-0.40142 6.10873,-0.80284 9.16309,-1.20425 0,0 -24.91082,-17.59374 -24.91082,-17.59374 v 0 c -3.1071,0.42904 -6.2142,0.85809 -9.3213,1.28714 -7.7102,1.4139 -10.53451,1.72346 -18.00696,3.90138 -10.09095,2.94111 -19.60464,7.46441 -28.93456,12.23606 -4.90024,2.77597 -6.7661,3.52593 -11.01138,7.05606 -5.42811,4.51371 -9.29741,10.31542 -12.17715,16.70781 -0.77059,1.60072 -3.7645,7.79645 -4.48982,9.39771 -2.72665,6.01963 -4.94211,12.25184 -7.29409,18.42242 -2.31426,7.48188 -4.90269,14.93868 -4.2934,22.90418 0.1572,1.2881 0.25094,2.58555 0.47159,3.86431 1.60076,9.27728 5.5039,18.03141 9.5646,26.44315 5.80034,11.32402 11.94144,22.49774 18.97745,33.10912 1.99132,2.44902 1.25687,1.6707 3.22471,3.6765 0.42693,0.43515 0.76764,0.98348 1.29206,1.2943 10.86103,6.43706 21.76348,12.80999 32.81254,18.91867 0.4564,0.25232 1.04258,0.13088 1.56215,0.086 0.45629,-0.0394 0.88817,-0.22399 1.33226,-0.33599 3.70107,-1.24245 7.10879,-3.15314 10.46913,-5.11856 3.25908,-1.88485 6.55287,-3.75134 9.59259,-5.98449 2.90506,-2.13421 5.45234,-4.669 7.86532,-7.33607 5.80476,-6.94528 11.50366,-14.05421 15.72737,-22.10391 2.34213,-4.38122 4.69768,-8.78203 6.73138,-13.31857 0.86027,-1.91901 2.3249,-5.33731 2.62033,-7.54014 0.11642,-0.86798 -0.0986,-1.74873 -0.14793,-2.6231 -0.23153,-0.62093 -0.37909,-1.28001 -0.69458,-1.86278 -0.10231,-0.18899 -1.79974,-2.25546 -2.01062,-2.38218 -7.30943,-4.39221 -22.47279,-16.50017 -35.25689,-19.87924 -3.5836,-0.74585 -7.18143,-1.52514 -10.79576,-0.43475 -4.13845,0.86291 -8.29815,1.70334 -12.51708,2.05121 0,0 30.5399,21.28375 30.5399,21.28375 z" />
    <path
       style="fill:#f7931a;stroke:#f7931a;stroke-width:5;stroke-dasharray:none;fill-opacity:1;stroke-opacity:1"
       id="path1571"
       d="m 641.97285,171.42466 c -2.12736,8.31534 -6.08707,16.0179 -9.49045,23.85483 -3.84291,8.84906 -3.19259,7.42197 -6.72878,16.37631 -4.14852,11.21494 -8.48464,22.45019 -10.93709,34.19036 -0.38133,1.82547 -0.65432,3.67191 -0.98147,5.50787 -0.71224,4.31749 -1.34611,8.65204 -1.75304,13.01029 -0.13167,1.41013 -0.40738,4.78244 -0.30192,6.27281 0.0768,1.08523 0.32622,2.15129 0.48933,3.22694 0.46948,1.23998 0.81322,2.53517 1.40844,3.71993 1.72759,3.43872 4.11924,6.39301 6.56082,9.33918 4.53341,5.4703 9.46797,10.59669 14.36678,15.73504 3.44406,3.49036 6.85891,7.03699 10.64775,10.16273 0.863,0.71197 1.69893,1.47427 2.66044,2.04625 31.55074,18.76891 21.11463,14.70204 35.71159,20.12713 1.00935,0.23481 2.00769,0.52336 3.02805,0.70444 1.75354,0.31118 4.85574,0.56216 6.61336,0.69836 1.59464,0.12357 4.63409,0.34858 6.28093,0.31738 0.87217,-0.0165 1.73968,-0.13165 2.60952,-0.19747 0.77563,-0.29821 1.64474,-0.42008 2.3269,-0.89463 1.52351,-1.05986 3.47249,-3.92883 4.55972,-5.25442 2.6993,-3.29109 5.68323,-6.29784 8.66142,-9.33178 4.57302,-4.36601 7.62367,-9.95365 11.03236,-15.20254 1.40883,-2.16939 6.12329,-9.21857 7.47927,-11.25049 3.99596,-6.26482 8.0092,-12.5716 11.05824,-19.37076 1.68969,-3.76791 3.84979,-9.7736 4.98014,-13.7734 0.63987,-2.26419 1.09427,-4.57673 1.6414,-6.86509 1.52642,-8.89685 3.30101,-17.83233 3.73996,-26.87196 0.0658,-1.35457 0.0627,-2.71161 0.094,-4.06741 -0.31156,-6.77518 -0.66763,-13.64042 -2.10769,-20.29144 -0.26669,-1.23173 -0.62078,-2.44289 -0.93118,-3.66434 -1.8624,-6.86686 -5.47479,-12.97962 -9.4822,-18.78386 -2.80019,-3.8947 -6.27076,-7.20473 -9.71928,-10.50835 -10.23719,-9.13576 -22.28854,-17.42077 -35.66696,-20.61342 -2.48711,-0.59353 -5.02707,-0.99526 -7.55343,-1.37037 -6.57482,-0.95201 -13.23837,-0.74342 -19.80991,0.0804 -4.72767,0.57184 -9.16723,2.34778 -13.27992,4.68758 -2.9808,1.70831 -5.0671,4.2996 -6.95782,7.09168 -1.7474,3.01439 -2.96449,6.31674 -4.24425,9.55197 -1.24796,3.1102 -1.80878,6.41853 -2.95813,9.56366 -0.47565,1.2412 -1.0584,1.83571 -2.05914,2.58428 -1.22822,1.20941 -2.44118,2.4153 -3.64039,3.65333 -1.34948,1.34733 -2.76983,2.63388 -4.27267,3.80777 0,0 31.72015,19.57781 31.72015,19.57781 v 0 c 1.26899,-1.41281 2.62354,-2.73972 3.99918,-4.04788 1.28123,-1.16149 2.67261,-2.19894 4.0024,-3.30535 1.25077,-1.2999 2.01683,-2.91376 2.48586,-4.65001 0.77058,-3.19376 1.31143,-6.45485 2.68914,-9.46999 0.98813,-3.01573 2.13222,-6.02547 3.84973,-8.70923 1.60275,-2.3027 3.40423,-4.4187 5.91312,-5.7775 3.62295,-2.01768 7.41689,-3.62566 11.57901,-4.12079 0.99352,-0.10592 1.98383,-0.24823 2.98056,-0.31776 5.47311,-0.38177 10.96474,0.15598 16.33235,1.23385 2.64102,0.64344 5.26672,1.25331 7.73699,2.42607 0.57748,0.27417 2.22472,1.2604 1.67335,0.93692 -31.55788,-18.51467 -39.3311,-23.3425 -28.22321,-16.46703 3.93883,3.03928 7.59386,6.46168 10.91845,10.16171 4.39057,5.37731 8.31438,11.13245 10.47796,17.80137 0.91458,2.96252 1.32882,4.0641 1.96964,7.12012 1.11023,5.29463 1.54965,10.70848 1.72386,16.10601 0.28895,10.45674 0.40235,20.98968 -1.47222,31.32516 -1.16855,5.4633 -1.5637,8.08841 -3.37714,13.40956 -3.13359,9.19483 -7.93296,17.69374 -13.65948,25.50998 -1.38874,1.86609 -2.74726,3.75507 -4.16624,5.59828 -5.0996,6.6242 -10.62978,12.90106 -16.00055,19.30219 -2.87888,3.15643 -5.77954,6.2551 -9.01408,9.05742 -1.47828,1.28073 -2.74535,2.46037 -4.57819,3.12933 -0.53359,0.19476 -1.11339,0.22571 -1.67009,0.33856 -5.81103,0.34759 -11.70464,-0.3266 -17.11188,-2.5777 -11.87198,-5.91221 -5.11434,-2.61976 24.65235,14.64876 1.10288,0.63981 -2.19529,-1.30077 -3.24923,-2.01833 -4.56148,-3.10562 -8.71192,-6.77653 -12.71792,-10.55583 -4.81832,-4.82952 -9.5453,-9.65999 -13.75896,-15.04032 -1.77583,-2.26751 -3.90902,-5.20323 -5.30696,-7.80053 -0.50515,-0.93852 -0.86874,-1.94661 -1.30311,-2.91991 -0.22815,-0.90406 -0.52592,-1.79335 -0.68444,-2.71218 -0.16745,-0.97055 -0.2179,-1.95814 -0.29074,-2.94032 -0.41253,-5.56241 -0.14616,-11.15648 0.23654,-16.71155 0.51852,-4.54797 0.71021,-6.85721 1.53329,-11.42116 1.76985,-9.81379 4.60039,-19.40212 7.83479,-28.82263 2.48274,-6.36456 3.69308,-9.92197 6.78517,-16.0292 3.84158,-7.58756 8.60403,-14.71509 14.11924,-21.18338 0,0 -31.70344,-18.08335 -31.70344,-18.08335 z" />
    <circle
       id="path1573"
       style="fill:#ffff00;stroke:#000000"
       cx="649.72906"
       cy="200.23723"
       r="0" />
  </g>
</svg>
